<svg xmlns="http://www.w3.org/2000/svg" viewBox="0 0 512 512" width="48" height="48">
  <circle fill="#3880FF" cx="256" cy="256" r="102"/>
  <circle fill="#3880FF" cx="402" cy="116" r="47"/>
  <path fill="#3880FF" d="M459.4 163.6c-14.8 8.1-31.6 12.6-49.4 12.6-8.3 0-16.3-1-24-2.9 5.2 17.1 8 35.3 8 54.3 0 106.8-86.7 193.5-193.4 193.5S7.2 334.4 7.2 227.6 93.9 34.1 200.6 34.1c19.5 0 38.2 2.9 55.8 8.2-1.8-7.7-2.8-15.7-2.8-24 0-8.3 1-16.3 2.9-24-18.5-4.3-37.8-6.6-57.8-6.6C89.5-12.3-7.4 89.7-7.4 198.9s96.9 211.2 206.1 211.2 206.1-96.9 206.1-206.1c0-19.5-2.7-38.4-7.7-56.3z"/>
</svg>
