<svg xmlns="http://www.w3.org/2000/svg" viewBox="0 0 24 24" width="48" height="48">
  <path fill="#757575" d="M12 0C5.377 0 0 5.377 0 12s5.377 12 12 12 12-5.377 12-12S18.623 0 12 0z"/>
  <path fill="#BDBDBD" d="M12 2c5.514 0 10 4.486 10 10s-4.486 10-10 10S2 17.514 2 12 6.486 2 12 2z"/>
  <path fill="#F44336" d="M12 2v10l8.66 5c1.4-2.38 1.93-5.37 1.15-8.3-.78-2.93-2.68-5.32-5.15-6.7H12z"/>
  <path fill="#2196F3" d="M3.34 7c-1.4 2.38-1.93 5.37-1.15 8.3.78 2.93 2.68 5.32 5.15 6.7H12V12L3.34 7z"/>
  <path fill="#FFC107" d="M12 12v10h4.66c2.47-1.38 4.37-3.77 5.15-6.7.26-.98.38-1.98.38-2.98L12 12z"/>
</svg>
