<?xml version="1.0" standalone="no"?>
<!DOCTYPE svg PUBLIC "-//W3C//DTD SVG 20010904//EN"
  "http://www.w3.org/TR/2001/REC-SVG-20010904/DTD/svg10.dtd">
<svg version="1.0" xmlns="http://www.w3.org/2000/svg"
     width="1536.000000pt" height="1024.000000pt" viewBox="0 0 1536.000000 1024.000000"
     preserveAspectRatio="xMidYMid meet">

  <defs>
    <linearGradient id="emberGradient" x1="0%" y1="0%" x2="100%" y2="100%">
      <stop offset="0%" stop-color="#ff4d00"/>
      <stop offset="50%" stop-color="#ff6b2b"/>
      <stop offset="100%" stop-color="#ff8c42"/>
    </linearGradient>
  </defs>

  <g transform="translate(0.000000,1024.000000) scale(0.100000,-0.100000)"
     fill="url(#emberGradient)" stroke="none">
    <path d="M5500 7507 c-8 -7 -196 -195 -417 -418 -388 -391 -403 -407 -403
-444 0 -21 9 -52 20 -69 27 -43 267 -269 297 -280 54 -18 86 0 217 126 l127
121 507 -506 507 -507 45 0 c42 0 47 4 142 98 94 94 98 100 98 142 l0 44 -510
511 -511 511 126 125 c70 68 133 136 141 151 15 29 18 86 6 104 -22 35 -260
278 -284 290 -33 17 -88 18 -108 1z"/>
    <path d="M4080 6778 c0 -7 41 -149 91 -316 50 -167 89 -305 86 -308 -3 -3 -89
13 -191 35 -103 23 -189 41 -191 41 -25 0 68 -138 454 -675 169 -234 158 -222
170 -210 5 6 -35 129 -103 310 -62 165 -109 302 -104 303 4 2 78 -11 163 -29
86 -17 158 -30 161 -26 3 3 -61 115 -142 249 -311 515 -386 638 -390 638 -2 0
-4 -5 -4 -12z"/>
    <path d="M9498 6011 c-112 -44 -173 -128 -192 -265 l-12 -81 -52 -29 c-73 -42
-71 -66 3 -66 l56 0 -3 -276 -3 -276 -28 -24 c-15 -13 -39 -24 -53 -24 -19 0
-24 -5 -24 -25 l0 -25 190 0 190 0 0 25 c0 22 -4 25 -34 25 -22 0 -45 9 -63
24 l-28 24 -3 276 -3 276 113 0 113 0 -1 36 -1 36 -113 -1 -113 -2 6 108 c8
158 37 223 101 223 25 0 42 -12 87 -60 44 -48 61 -60 86 -60 39 0 63 27 63 71
0 90 -155 139 -282 90z"/>
    <path d="M5040 5849 c-107 -88 -201 -163 -207 -166 -31 -12 -7 -20 79 -27 50
-3 93 -8 96 -10 2 -3 -42 -70 -97 -150 -124 -177 -128 -187 -70 -150 111 70
504 337 507 344 2 4 -46 11 -106 15 -60 4 -114 10 -120 14 -8 5 11 51 58 142
70 136 76 149 63 149 -5 0 -96 -73 -203 -161z"/>
    <path d="M7180 5654 c-58 -14 -115 -27 -127 -29 -33 -8 -32 -55 1 -55 42 0 87
-22 97 -47 5 -13 9 -134 9 -269 0 -231 -1 -245 -20 -264 -12 -12 -33 -20 -55
-20 -31 0 -35 -3 -35 -25 l0 -25 180 0 180 0 0 25 c0 22 -4 25 -34 25 -63 0
-66 14 -66 275 0 262 -4 248 87 294 63 31 116 37 168 16 77 -29 80 -42 80
-311 0 -214 -1 -234 -19 -253 -11 -12 -30 -21 -43 -21 -18 0 -23 -5 -23 -25
l0 -25 165 0 165 0 0 25 c0 21 -5 25 -29 25 -35 0 -61 22 -62 53 -1 12 -4 135
-8 272 -7 284 -12 306 -84 353 -35 23 -51 27 -116 27 -64 0 -86 -5 -141 -31
-36 -17 -82 -45 -102 -62 l-36 -32 -6 31 c-3 17 -6 47 -6 65 0 19 -3 33 -7 33
-5 -1 -55 -12 -113 -25z"/>
    <path d="M8232 5668 c-210 -33 -308 -236 -193 -400 14 -20 43 -47 63 -60 21
-13 38 -25 38 -28 0 -3 -15 -14 -34 -24 -56 -30 -88 -70 -88 -109 0 -45 15
-72 52 -94 17 -9 30 -20 30 -23 0 -3 -25 -20 -55 -38 -165 -100 -146 -254 38
-311 179 -55 379 -25 495 75 78 66 113 184 77 254 -33 63 -99 93 -230 105
-306 27 -342 41 -281 112 23 27 28 28 118 28 126 1 186 22 254 90 56 55 74 98
74 173 0 49 -22 107 -52 139 l-21 23 91 0 92 0 0 43 0 43 -112 -13 c-98 -12
-121 -12 -173 1 -84 21 -122 24 -183 14z m114 -69 c53 -32 87 -114 88 -208 0
-123 -41 -181 -130 -181 -81 0 -144 85 -152 208 -5 84 14 150 55 182 34 26 96
26 139 -1z m-66 -694 c168 -20 224 -32 256 -57 23 -18 26 -27 21 -63 -8 -73
-63 -125 -159 -151 -104 -27 -226 -10 -287 42 -38 31 -54 86 -41 134 9 33 64
110 78 110 4 0 63 -7 132 -15z"/>
    <path d="M10685 5669 c-16 -5 -64 -16 -105 -24 -124 -25 -120 -23 -120 -49 0
-20 6 -24 47 -29 35 -4 53 -12 70 -32 23 -26 23 -30 23 -275 l0 -249 -26 -20
c-15 -12 -37 -21 -50 -21 -19 0 -24 -5 -24 -25 l0 -25 190 0 190 0 0 25 c0 23
-4 25 -40 25 -30 0 -47 7 -65 25 -25 24 -25 25 -25 218 0 217 -4 202 84 295
41 43 72 53 82 28 3 -8 24 -22 45 -30 49 -20 86 -7 107 38 12 23 12 34 0 64
-24 62 -102 81 -177 42 -36 -18 -131 -114 -131 -132 0 -5 -4 -8 -10 -8 -6 0
-10 35 -10 85 0 91 0 91 -55 74z"/>
    <path d="M11405 5669 c-178 -24 -286 -167 -241 -320 17 -62 71 -130 116 -149
36 -15 38 -23 6 -38 -39 -17 -93 -70 -100 -97 -9 -36 17 -90 53 -111 17 -10
31 -21 31 -24 0 -3 -18 -15 -39 -27 -136 -78 -167 -177 -80 -264 102 -102 390
-114 546 -22 131 77 190 236 118 321 -44 52 -103 69 -299 86 -226 20 -259 37
-202 103 23 27 28 28 118 29 117 1 192 28 254 89 41 42 74 116 74 169 0 37
-20 93 -45 130 -14 20 -25 38 -25 39 0 1 40 1 90 -1 l90 -3 0 44 0 44 -117
-15 c-96 -11 -125 -11 -158 -1 -58 18 -133 25 -190 18z m106 -72 c53 -36 82
-97 87 -188 3 -45 0 -91 -7 -112 -28 -83 -119 -113 -192 -63 -102 70 -115 319
-20 371 39 21 93 18 132 -8z m-48 -692 c175 -19 241 -37 263 -70 36 -55 -11
-136 -103 -182 -51 -25 -69 -28 -153 -28 -80 0 -103 4 -143 24 -65 32 -89 71
-84 137 3 40 11 61 36 93 18 22 35 41 37 41 3 0 69 -7 147 -15z"/>
    <path d="M9932 5652 c-97 -35 -185 -128 -219 -231 -26 -82 -24 -227 6 -303
100 -257 479 -293 642 -61 75 108 96 276 49 397 -28 73 -96 148 -165 184 -68
35 -232 43 -313 14z m193 -71 c52 -24 78 -53 109 -122 37 -79 52 -190 38 -274
-23 -142 -84 -208 -190 -208 -96 0 -160 50 -203 160 -20 49 -23 77 -24 183 0
111 3 130 22 167 55 102 152 139 248 94z"/>
    <path d="M12105 5637 c-29 -14 -71 -47 -102 -80 -83 -91 -113 -199 -93 -336
20 -142 95 -253 205 -303 75 -34 181 -32 256 5 59 28 126 92 153 145 14 27 14
31 0 36 -10 4 -29 -5 -50 -24 -48 -41 -87 -60 -142 -67 -142 -16 -254 96 -277
277 l-7 55 239 0 238 0 3 43 c5 71 -25 150 -79 204 -56 56 -94 68 -209 68 -68
0 -95 -5 -135 -23z m198 -54 c32 -16 61 -74 71 -140 l6 -43 -38 0 c-22 0 -94
3 -160 7 -141 7 -142 8 -97 100 47 93 129 121 218 76z"/>
    <path d="M8760 5300 l0 -50 170 0 170 0 0 50 0 50 -170 0 -170 0 0 -50z"/>
    <path d="M4009 5143 l-33 -28 -575 -3 c-399 -2 -579 -6 -588 -13 -7 -7 -13
-26 -13 -44 0 -41 48 -104 174 -231 246 -246 529 -389 869 -440 179 -26 248
-54 324 -130 68 -68 88 -121 88 -229 0 -112 -20 -160 -101 -245 -92 -96 -186
-146 -323 -171 -90 -17 -91 -19 -91 -189 0 -131 2 -149 19 -164 17 -15 45 -17
283 -14 l264 3 89 72 c183 149 217 158 600 158 377 0 397 -5 582 -158 l88 -72
271 -3 c239 -3 274 -1 288 13 13 14 16 42 16 165 0 169 -2 173 -75 184 -117
18 -217 69 -305 157 -185 186 -164 468 50 680 114 112 263 185 645 316 75 26
137 53 148 65 14 17 17 42 17 168 0 130 -2 149 -18 163 -17 16 -124 17 -1340
17 l-1320 0 -33 -27z"/>
    <path d="M9692 4334 c-41 -29 -19 -94 32 -94 30 0 49 22 49 57 0 25 -25 53
-48 53 -6 0 -21 -7 -33 -16z"/>
    <path d="M10420 4315 c0 -9 9 -15 25 -15 39 0 45 -32 45 -248 0 -163 -3 -201
-16 -220 -8 -12 -22 -22 -30 -22 -8 0 -14 -6 -14 -12 0 -10 29 -13 110 -13 81
0 110 3 110 13 0 6 -8 12 -18 12 -10 0 -28 7 -40 16 -20 14 -22 23 -22 119 l0
105 63 -6 c63 -6 97 -27 97 -60 0 -8 6 -14 14 -14 11 0 14 20 14 90 0 50 -4
93 -9 96 -5 3 -16 -10 -24 -29 -17 -41 -30 -47 -101 -47 l-55 0 3 107 3 108
83 -1 c93 0 103 -6 125 -68 28 -82 45 -49 31 58 l-7 46 -193 0 c-166 0 -194
-2 -194 -15z"/>
    <path d="M7070 4305 c0 -8 8 -15 19 -15 39 0 42 -19 39 -246 -3 -216 -3 -219
-25 -229 -13 -5 -25 -15 -27 -22 -7 -17 239 -18 314 -2 252 54 298 421 64 509
-47 17 -78 20 -219 20 -140 0 -165 -2 -165 -15z m305 -26 c51 -14 110 -73 124
-124 14 -52 14 -163 -1 -206 -28 -84 -93 -130 -182 -131 -99 -1 -96 -10 -96
241 0 120 3 221 7 224 10 11 104 8 148 -4z"/>
    <path d="M8128 4160 c-62 -15 -72 -29 -35 -45 21 -10 22 -16 25 -153 2 -137 2
-144 -18 -149 -11 -3 -20 -12 -20 -19 0 -11 19 -14 80 -14 61 0 80 3 80 14 0
7 -9 16 -20 19 -19 5 -20 14 -20 136 l0 131 27 17 c35 23 107 24 129 1 13 -13
17 -39 18 -143 1 -110 -1 -128 -16 -139 -37 -27 -20 -36 67 -36 67 0 85 3 85
14 0 9 -12 16 -27 18 l-28 3 -5 145 c-6 161 -13 184 -65 206 -41 17 -85 10
-142 -22 -23 -13 -44 -24 -47 -24 -2 0 -6 12 -8 28 l-3 27 -57 -15z"/>
    <path d="M8675 4170 c-55 -17 -97 -45 -112 -74 -15 -28 -14 -31 7 -48 35 -28
60 -9 60 47 0 42 2 45 25 45 44 0 82 -27 95 -65 16 -48 9 -61 -37 -70 -57 -10
-128 -43 -154 -71 -34 -36 -32 -95 3 -130 38 -39 95 -37 154 4 38 27 44 29 44
13 0 -30 35 -54 67 -47 34 9 73 33 73 46 0 6 -13 10 -29 10 -38 0 -41 11 -41
133 0 119 -12 171 -44 192 -30 20 -75 26 -111 15z m85 -239 c0 -43 -4 -53 -31
-75 -35 -30 -74 -33 -101 -9 -41 37 -17 84 57 113 73 28 75 27 75 -29z"/>
    <path d="M8988 4162 c-61 -15 -76 -35 -33 -46 22 -6 25 -12 26 -59 1 -28 3
-63 5 -77 1 -14 0 -56 -3 -94 -5 -55 -10 -70 -25 -74 -10 -2 -18 -11 -18 -18
0 -11 19 -14 80 -14 61 0 80 3 80 14 0 7 -9 16 -20 19 -19 5 -20 14 -20 140
l0 135 41 16 c45 18 90 14 110 -10 16 -19 24 -221 10 -256 -6 -16 -17 -28 -26
-28 -8 0 -15 -7 -15 -15 0 -12 16 -15 80 -15 61 0 80 3 80 14 0 7 -9 16 -20
19 -19 5 -20 14 -20 137 l0 131 45 20 c28 12 54 17 70 13 47 -12 55 -37 55
-172 0 -115 -1 -124 -20 -129 -11 -3 -20 -12 -20 -19 0 -11 19 -14 85 -14 69
0 85 3 85 15 0 8 -8 15 -19 15 -10 0 -23 6 -29 13 -6 7 -12 75 -14 154 -3 135
-4 143 -28 168 -23 24 -31 27 -82 23 -42 -3 -65 -11 -92 -32 l-37 -27 -28 30
c-25 26 -36 31 -78 31 -32 0 -62 -8 -89 -24 l-42 -24 -8 27 -9 27 -57 -14z"/>
    <path d="M9682 4166 c-29 -6 -53 -14 -53 -18 1 -5 1 -12 1 -18 0 -5 8 -10 19
-10 36 0 42 -22 39 -161 -3 -128 -4 -134 -25 -144 -13 -5 -23 -15 -23 -22 0
-10 23 -13 85 -13 62 0 85 3 85 13 0 7 -10 17 -22 22 -22 10 -23 14 -26 188
-2 132 -6 177 -15 176 -6 -1 -36 -6 -65 -13z"/>
    <path d="M10957 4165 c-110 -38 -161 -179 -106 -292 67 -138 275 -131 340 12
36 78 17 199 -39 248 -48 43 -129 56 -195 32z m118 -57 c66 -62 74 -211 14
-271 -25 -25 -35 -29 -66 -24 -19 4 -45 14 -56 24 -72 64 -76 238 -6 287 37
25 75 20 114 -16z"/>
    <path d="M11335 4173 c-73 -17 -95 -25 -95 -37 0 -7 13 -16 29 -19 l30 -6 3
-103 c4 -150 0 -177 -28 -190 -44 -20 -20 -29 76 -30 96 -1 132 11 72 23 -18
4 -35 8 -37 11 -2 2 -5 51 -6 108 l-2 105 35 40 c35 39 36 40 56 21 29 -26 72
-15 72 18 0 45 -10 56 -50 56 -31 0 -44 -7 -74 -40 -38 -42 -48 -48 -45 -27 4
29 -2 77 -8 76 -5 -1 -17 -3 -28 -6z"/>
    <path d="M11628 4162 c-59 -15 -78 -38 -36 -44 29 -4 36 -31 37 -155 1 -108
-9 -153 -34 -153 -8 0 -15 -7 -15 -15 0 -12 16 -15 80 -15 61 0 80 3 80 14 0
7 -9 16 -20 19 -19 5 -20 14 -20 136 0 129 0 131 25 147 35 23 100 23 122 1
15 -14 19 -39 21 -137 4 -119 4 -119 -24 -145 -15 -14 -25 -25 -23 -26 2 0 41
-2 87 -4 65 -3 82 -1 82 10 0 7 -10 15 -22 17 -23 3 -23 6 -23 138 l0 135 26
12 c56 27 86 27 113 0 25 -25 26 -31 26 -146 0 -110 -2 -122 -20 -133 -35 -22
-22 -28 65 -28 70 0 85 3 85 16 0 8 -4 12 -10 9 -5 -3 -18 -1 -29 4 -18 10
-20 24 -23 157 l-3 146 -29 25 c-26 22 -37 25 -82 21 -37 -3 -63 -13 -88 -32
l-36 -27 -26 30 c-23 27 -32 31 -77 31 -36 0 -63 -7 -94 -25 l-43 -26 0 25 c0
14 -3 26 -7 28 -5 2 -34 -2 -65 -10z"/>
    <path d="M9974 4156 c-17 -8 -45 -31 -62 -51 -124 -151 5 -391 171 -317 41 18
87 66 87 91 0 16 -16 13 -31 -6 -20 -24 -72 -43 -100 -36 -58 14 -99 77 -99
153 0 92 41 150 106 150 27 0 33 -5 47 -40 17 -44 40 -59 62 -40 24 20 18 66
-11 89 -32 25 -121 28 -170 7z"/>
    <path d="M12343 4150 c-40 -24 -56 -53 -56 -102 0 -50 30 -82 102 -109 89 -33
113 -66 73 -102 -50 -45 -121 -27 -142 38 -6 19 -18 35 -26 35 -12 0 -14 -13
-12 -62 l3 -63 43 -6 c61 -8 138 4 170 28 53 39 59 126 12 165 -12 9 -47 26
-78 38 -68 26 -92 45 -92 75 0 34 23 47 77 43 46 -3 49 -5 68 -45 28 -60 45
-55 45 12 0 50 -2 56 -26 65 -43 17 -126 12 -161 -10z"/>
    <path d="M7640 4145 c0 -8 6 -15 13 -15 27 0 47 -37 107 -195 l61 -160 -27
-57 c-27 -56 -27 -56 -68 -55 -39 2 -41 1 -41 -27 0 -37 25 -53 62 -41 32 12
78 96 163 304 82 198 99 231 121 231 10 0 19 7 19 15 0 12 -16 15 -80 15 -64
0 -80 -3 -80 -15 0 -10 10 -15 30 -15 39 0 39 -14 -5 -135 -52 -143 -47 -143
-94 -11 -47 134 -49 146 -21 146 11 0 20 7 20 15 0 12 -17 15 -90 15 -73 0
-90 -3 -90 -15z"/>
  </g>
</svg>
