<?xml version="1.0" encoding="UTF-8"?>
<svg version="1.1" xmlns="http://www.w3.org/2000/svg" width="400" height="400" viewBox="300 200 600 600">
  <!-- Anvil (main body) -->
  <path d="M0 0 C1.62900848 -0.00958323 1.62900848 -0.00958323 3.29092622 -0.01936007 C6.92473505 -0.03460323 10.55745251 -0.0141519 14.19122314 0.00622559 C16.79819602 0.0027243 19.40516675 -0.00293435 22.01213074 -0.0105896 C28.35368724 -0.02509808 34.69492302 -0.01290192 41.0364491 0.00852364 C48.42031015 0.03255433 55.80409804 0.03081813 63.1879895 0.02821773 C76.3592186 0.02452971 89.53029666 0.04533746 102.70147705 0.07946777 C115.48634658 0.11258478 128.27105768 0.1267213 141.05596924 0.1204834 C154.9795631 0.11372333 168.90309064 0.11616662 182.8266747 0.1358428 C183.56246558 0.13688229 184.29825647 0.13792177 185.05634405 0.13899276 C186.53416768 0.14108365 188.01199129 0.14319463 189.48981486 0.14532593 C194.63915818 0.15222688 199.78848109 0.15289 204.93782806 0.15144348 C211.86207611 0.14985572 218.78613042 0.16471582 225.71032906 0.19067001 C228.25690603 0.19785497 230.80350322 0.19990432 233.35008812 0.19655228 C236.81489999 0.19286028 240.27914938 0.20750568 243.74389648 0.22705078 C244.76148442 0.22172286 245.77907236 0.21639493 246.82749629 0.21090555 C247.75225237 0.21996219 248.67700845 0.22901883 249.62978745 0.23834991 C250.82989759 0.24070672 250.82989759 0.24070672 252.05425239 0.24311113 C254.66280734 0.72134442 255.54827449 1.51098763 257.11798096 3.62145996 C257.50616455 6.76013184 257.50616455 6.76013184 257.51641846 10.59020996 C257.51928864 11.26692749 257.52215881 11.94364502 257.52511597 12.64086914 C257.52715493 14.06979205 257.52163664 15.49874298 257.50909424 16.9276123 C257.49303606 19.11395721 257.5089463 21.29845375 257.52813721 23.48474121 C257.52615474 24.8740682 257.522311 26.26339405 257.51641846 27.65270996 C257.51303467 28.91663574 257.50965088 30.18056152 257.50616455 31.48278809 C257.11798096 34.62145996 257.11798096 34.62145996 256.03009033 36.39440918 C253.23951595 38.18519402 250.25254987 39.19071761 247.12579346 40.22302246 C245.69372517 40.71360314 244.2616785 41.20424691 242.82965088 41.69494629 C242.08041351 41.94805573 241.33117615 42.20116516 240.55923462 42.46194458 C226.47375346 47.23269866 212.58069883 52.26766375 199.11798096 58.62145996 C198.47651123 58.92358398 197.8350415 59.22570801 197.1741333 59.5369873 C181.0228042 67.29947417 167.94612344 79.02312431 161.41094971 95.98864746 C159.70914221 101.26900049 159.46402365 106.4786874 159.43048096 111.99645996 C159.41984619 113.35045898 159.41984619 113.35045898 159.40899658 114.73181152 C159.71158806 125.8827165 164.28508113 134.80099331 172.11798096 142.62145996 C182.02754409 150.77700482 192.10936106 155.39797765 204.90313721 157.03161621 C207.11798096 157.62145996 207.11798096 157.62145996 209.11798096 160.62145996 C209.50424079 164.90636908 209.44716787 169.20020348 209.43365479 173.50036621 C209.43049186 175.61417046 209.45397109 177.72657843 209.47930908 179.84020996 C209.4815819 181.1839582 209.48228565 182.52771019 209.48126221 183.87145996 C209.48573364 185.70450684 209.48573364 185.70450684 209.49029541 187.57458496 C209.11798096 190.62145996 209.11798096 190.62145996 207.91589355 192.28266907 C205.51642034 194.0694038 203.95729778 194.03259436 200.97906494 194.08898926 C199.93044785 194.1145842 198.88183075 194.14017914 197.80143738 194.16654968 C196.6671077 194.17616226 195.53277802 194.18577484 194.36407471 194.19567871 C193.19344986 194.21040726 192.02282501 194.2251358 190.81672668 194.24031067 C188.33444764 194.264289 185.85207334 194.27969108 183.36968994 194.28723145 C179.5933533 194.30874421 175.82115111 194.38884972 172.04571533 194.47106934 C169.63102315 194.48707421 167.21630453 194.49955501 164.80157471 194.50817871 C163.68141464 194.54005783 162.56125458 194.57193695 161.40715027 194.6047821 C152.67267818 194.53071834 148.31544758 191.57201612 142.11798096 185.62145996 C124.877313 171.25101118 107.28623341 170.25769161 85.659729 170.30578613 C82.6890606 170.30895082 79.71938682 170.285387 76.74884033 170.26013184 C54.80722664 170.18601945 39.09455878 173.87087891 22.11798096 188.62145996 C17.66151552 192.36939374 14.87012681 193.73884135 9.05157471 193.78259277 C8.02040527 193.79220032 6.98923584 193.80180786 5.92681885 193.81170654 C4.81427734 193.81595642 3.70173584 193.8202063 2.55548096 193.82458496 C1.41264648 193.83028503 0.26981201 193.83598511 -0.90765381 193.84185791 C-3.32520623 193.85130728 -5.74277153 193.85784164 -8.16033936 193.86169434 C-11.86727144 193.87142126 -15.57365412 193.9024546 -19.28045654 193.93395996 C-21.62680741 193.94048784 -23.97316225 193.94573915 -26.31951904 193.94958496 C-27.43206055 193.96193176 -28.54460205 193.97427856 -29.69085693 193.98699951 C-30.72202637 193.98399841 -31.7531958 193.98099731 -32.81561279 193.97790527 C-33.72367676 193.9815509 -34.63174072 193.98519653 -35.56732178 193.98895264 C-37.88201904 193.62145996 -37.88201904 193.62145996 -39.67440796 192.28961182 C-41.61050758 189.61515129 -41.27145779 187.12129521 -41.28045654 183.87145996 C-41.28332672 183.21693848 -41.2861969 182.56241699 -41.28915405 181.88806152 C-41.29119272 180.50621677 -41.2856765 179.12434303 -41.27313232 177.74255371 C-41.2570734 175.62861546 -41.27298505 173.51658883 -41.29217529 171.40270996 C-41.29019282 170.05895575 -41.28634906 168.71520272 -41.28045654 167.37145996 C-41.27707275 166.14942871 -41.27368896 164.92739746 -41.27020264 163.66833496 C-40.88201904 160.62145996 -40.88201904 160.62145996 -39.61322021 158.77526855 C-37.65348738 157.46914849 -36.07996261 156.92925834 -33.78436279 156.41052246 C-32.58928101 156.12580078 -32.58928101 156.12580078 -31.37005615 155.83532715 C-30.52837891 155.64100098 -29.68670166 155.4466748 -28.81951904 155.24645996 C-14.47042022 151.66153668 -3.86787003 145.81790041 5.11798096 133.62145996 C6.36742811 131.31332848 6.36742811 131.31332848 7.30548096 128.99645996 C7.79081299 127.86337402 7.79081299 127.86337402 8.28594971 126.70739746 C11.38716182 118.93252765 11.3095499 109.55880984 8.21173096 101.74255371 C3.40369306 92.41839451 -3.3275962 86.89654888 -13.19061279 83.47302246 C-20.16111619 81.4771625 -27.09707001 80.22908623 -34.25701904 79.18395996 C-61.07556653 75.20576797 -86.39770343 63.41873587 -106.88201904 45.62145996 C-107.71088623 44.90216309 -108.53975342 44.18286621 -109.39373779 43.44177246 C-111.92372063 41.20236958 -114.41123782 38.9259386 -116.88201904 36.62145996 C-117.64514404 35.91247559 -118.40826904 35.20349121 -119.19451904 34.47302246 C-123.42589033 30.40326605 -127.30746532 26.10454724 -130.94451904 21.49645996 C-132.07567139 20.06946777 -132.07567139 20.06946777 -133.22967529 18.61364746 C-135.22984181 14.99159652 -135.34670658 12.70092736 -134.88201904 8.62145996 C-132.88201904 6.62145996 -132.88201904 6.62145996 -130.85947895 6.37371349 C-129.60380761 6.3751585 -129.60380761 6.3751585 -128.32276917 6.37663269 C-126.88237778 6.37072617 -126.88237778 6.37072617 -125.41288757 6.36470032 C-123.82716698 6.37324287 -123.82716698 6.37324287 -122.20941162 6.38195801 C-121.098703 6.37994385 -119.98799438 6.37792969 -118.84362793 6.37585449 C-116.42474937 6.37230135 -114.00586154 6.37308543 -111.58698463 6.37763023 C-107.75802989 6.38320568 -103.92938011 6.37409287 -100.10044861 6.36042786 C-89.2114552 6.32322951 -78.32258388 6.30447673 -67.43353271 6.31604004 C-60.77861643 6.322933 -54.12406709 6.30361659 -47.46921349 6.27015114 C-44.93233113 6.26219532 -42.39540232 6.26347647 -39.85853004 6.27417564 C-36.30574926 6.2885096 -32.75430618 6.27222085 -29.20159912 6.24914551 C-28.15457321 6.26091324 -27.1075473 6.27268097 -26.02879333 6.2848053 C-25.05443329 6.27240814 -24.08007324 6.26001099 -23.07618713 6.24723816 C-22.23718778 6.24707042 -21.39818842 6.24690268 -20.53376484 6.24672985 C-17.74609797 5.58941038 -16.88282385 4.90163552 -14.73750973 3.12119007 C-10.11076786 -0.36910398 -5.61689046 -0.06970736 0 0 Z " fill="#244858" transform="translate(414.88201904296875,506.3785400390625)"/>

  <!-- Hammer -->
  <path d="M0 0 C7.29332932 1.50720291 12.73767535 8.67155505 17.73046875 13.7109375 C18.55933594 14.53207031 19.38820313 15.35320312 20.2421875 16.19921875 C33.50209254 29.50128565 33.50209254 29.50128565 33.85546875 35.5859375 C32.77913493 42.2592072 28.50578638 46.48143382 23.80859375 51.078125 C23.05131989 51.83115402 23.05131989 51.83115402 22.27874756 52.59939575 C20.68400289 54.18305165 19.08240831 55.75956337 17.48046875 57.3359375 C16.39016213 58.41619969 15.30031385 59.4969247 14.2109375 60.578125 C11.55605541 63.21109702 8.89498772 65.83771412 6.23046875 68.4609375 C11.03310138 74.24409614 16.19502068 79.5553188 21.5246582 84.8527832 C22.93074723 86.25663093 24.33683613 87.66047879 25.74292028 89.06433141 C27.24189721 90.55995538 28.74211412 92.05432512 30.24270058 93.54833412 C33.37568954 96.66772765 36.50479507 99.79099756 39.63334656 102.9148407 C46.26691822 109.53735166 52.90473524 116.15559997 59.54296875 122.7734375 C66.72786013 129.93629498 73.91200477 137.09989241 81.09130448 144.26835507 C84.20313269 147.37519631 87.31738359 150.47958242 90.43350089 153.58212149 C91.90117148 155.04414051 93.367704 156.50728951 94.83372498 157.97096252 C96.62302442 159.7573823 98.41413504 161.54199042 100.20733643 163.32449341 C100.99097061 164.1080571 101.7746048 164.89162079 102.58198547 165.69892883 C103.26645909 166.38118184 103.95093271 167.06343485 104.65614796 167.76636219 C107.66099841 171.00073819 107.63445133 173.89662803 107.56640625 178.15625 C107.02051493 181.90131838 104.92379396 184.02783695 102.23046875 186.4609375 C101.61429688 187.02554688 100.998125 187.59015625 100.36328125 188.171875 C99.01590334 189.37245687 97.65081309 190.55342887 96.26953125 191.71484375 C94.22862914 193.41898689 94.22862914 193.41898689 92.44140625 195.23828125 C89.58518855 198.00972537 87.34317885 199.87868018 83.29296875 200.2734375 C79.83115489 199.89884466 78.12119067 198.82127514 75.56689453 196.49339294 C74.51927948 195.5388236 74.51927948 195.5388236 73.45050049 194.56497002 C69.49632713 190.81740678 65.62905672 186.98948634 61.78515625 183.12915039 C60.87690598 182.22104614 59.9686557 181.31294189 59.03288269 180.37731934 C56.56631604 177.91103714 54.10282369 175.44170544 51.63991165 172.97177434 C49.05659099 170.38216107 46.47039836 167.79541907 43.88452148 165.20835876 C38.99891306 160.31965433 34.11585722 155.42840863 29.23373508 150.53622288 C23.67095621 144.96222888 18.1053045 139.39110715 12.53942108 133.82021344 C1.09992566 122.37029284 -10.33599386 110.91680768 -21.76953125 99.4609375 C-25.24252948 101.09613209 -27.43234372 102.92664218 -30.10546875 105.70703125 C-31.33136719 106.96290039 -31.33136719 106.96290039 -32.58203125 108.24414062 C-34.28464504 110.00774744 -35.9851824 111.77336135 -37.68359375 113.54101562 C-38.5034375 114.37955078 -39.32328125 115.21808594 -40.16796875 116.08203125 C-40.90708496 116.8495874 -41.64620117 117.61714355 -42.40771484 118.40795898 C-46.00626618 121.53595342 -49.46696693 123.21972188 -54.14453125 124.0859375 C-59.50713754 123.16135021 -61.96916389 120.19020956 -65.76953125 116.4609375 C-67.22904682 115.13501147 -68.68880599 113.809336 -70.15405273 112.48974609 C-88.2139911 96.16453848 -88.2139911 96.16453848 -89.33203125 88.7109375 C-89.01943206 79.64556101 -77.17683739 71.74848571 -71.05760193 65.67384338 C-69.2632079 63.89238502 -67.47210716 62.10767112 -65.6817627 60.32214355 C-61.23745756 55.8911032 -56.78768662 51.4655651 -52.33807373 47.03985596 C-48.56676423 43.28838099 -44.79758147 39.53479281 -41.03111267 35.77845764 C-39.27903329 34.0327904 -37.52393648 32.29019798 -35.76867676 30.54772949 C-30.65511559 25.45582432 -25.6283223 20.36763945 -21.05773926 14.77038574 C-20.63263062 14.33826782 -20.20752197 13.9061499 -19.76953125 13.4609375 C-19.10953125 13.4609375 -18.44953125 13.4609375 -17.76953125 13.4609375 C-17.51042969 12.87570312 -17.25132812 12.29046875 -16.984375 11.6875 C-15.68334838 9.30298176 -14.27082119 7.72886359 -12.33203125 5.8359375 C-11.43677734 4.95035156 -11.43677734 4.95035156 -10.5234375 4.046875 C-7.02353227 0.88215 -4.67385158 0.20523899 0 0 Z " fill="#244858" transform="translate(556.76953125,271.5390625)"/>
</svg>
